HIERARCHY
ROOT Hips
{
	OFFSET 0.000000 0.000000 0.000000
	CHANNELS 6 Xposition Yposition Zposition Zrotation Yrotation Xrotation 
	JOINT LowerBack
	{
		OFFSET 0.000000 0.000000 0.000000
		CHANNELS 3 Zrotation Yrotation Xrotation
		JOINT Spine
		{
			OFFSET 0.028270 2.035590 -0.193380
			CHANNELS 3 Zrotation Yrotation Xrotation
			JOINT Spine1
			{
				OFFSET 0.056720 2.048850 -0.042750
				CHANNELS 3 Zrotation Yrotation Xrotation
				JOINT Neck
				{
					OFFSET 0.000000 0.000000 0.000000
					CHANNELS 3 Zrotation Yrotation Xrotation
					JOINT Neck1
					{
						OFFSET -0.054170 1.746240 0.172020
						CHANNELS 3 Zrotation Yrotation Xrotation
						JOINT Head
						{
							OFFSET 0.104070 1.761360 -0.123970
							CHANNELS 3 Zrotation Yrotation Xrotation
							End Site
							{
								OFFSET 0.000000 0.000000 0.000000
							}
						}
					}
				}
				JOINT LeftShoulder
				{
					OFFSET 0.000000 0.000000 0.000000
					CHANNELS 3 Zrotation Yrotation Xrotation
					JOINT LeftArm
					{
						OFFSET 3.362410 1.200890 -0.311210
						CHANNELS 3 Zrotation Yrotation Xrotation
						JOINT LeftForeArm
						{
							OFFSET 4.983000 -0.000000 -0.000000
							CHANNELS 3 Zrotation Yrotation Xrotation
							JOINT LeftHand
							{
								OFFSET 3.483560 -0.000000 -0.000000
								CHANNELS 3 Zrotation Yrotation Xrotation
								JOINT LeftFingerBase
								{
									OFFSET 0.000000 0.000000 0.000000
									CHANNELS 3 Zrotation Yrotation Xrotation
									JOINT LeftHandIndex1
									{
										OFFSET 0.715260 -0.000000 -0.000000
										CHANNELS 3 Zrotation Yrotation Xrotation
										End Site
										{
											OFFSET 0.000000 0.000000 0.000000
										}
									}
								}
								JOINT LThumb
								{
									OFFSET 0.000000 0.000000 0.000000
									CHANNELS 3 Zrotation Yrotation Xrotation
									End Site
									{
										OFFSET 0.000000 0.000000 0.000000
									}
								}
							}
						}
					}
				}
				JOINT RightShoulder
				{
					OFFSET 0.000000 0.000000 0.000000
					CHANNELS 3 Zrotation Yrotation Xrotation
					JOINT RightArm
					{
						OFFSET -3.136600 1.374050 -0.404650
						CHANNELS 3 Zrotation Yrotation Xrotation
						JOINT RightForeArm
						{
							OFFSET -5.241900 -0.000000 -0.000000
							CHANNELS 3 Zrotation Yrotation Xrotation
							JOINT RightHand
							{
								OFFSET -3.444170 -0.000000 -0.000000
								CHANNELS 3 Zrotation Yrotation Xrotation
								JOINT RightFingerBase
								{
									OFFSET 0.000000 0.000000 0.000000
									CHANNELS 3 Zrotation Yrotation Xrotation
									JOINT RightHandIndex1
									{
										OFFSET -0.622530 -0.000000 -0.000000
										CHANNELS 3 Zrotation Yrotation Xrotation
										End Site
										{
											OFFSET 0.000000 0.000000 0.000000
										}
									}
								}
								JOINT RThumb
								{
									OFFSET 0.000000 0.000000 0.000000
									CHANNELS 3 Zrotation Yrotation Xrotation
									End Site
									{
										OFFSET 0.000000 0.000000 0.000000
									}
								}
							}
						}
					}
				}
			}
		}
	}
}
}
MOTION
Frames: 9
Frame Time: 0.008333
-5.426937 16.722873 0.439377 -165.234314 81.114111 -143.140117 7.194306 -1.752315 4.562562 0.258628 -1.997784 -1.664415 -8.145943 -2.008253 1.289386 7.236470 1.658112 4.453789 -5.654329 -0.442497 2.798054 0.000000 0.000000 0.000000 -6.217801 -5.393254 1.504958 -57.272134 -29.041828 11.579794 -2.710684 -48.233545 -0.020819 7.298923 -3.347682 -0.234439 -0.170441 0.265524 0.000000 0.000000 0.000000 0.000000 0.000000 0.000000 0.000000 20.965705 -2.951245 0.096498 63.109097 7.503681 -15.206749 3.330331 17.167927 0.010353 -0.580119 7.113202 -0.041451 0.085438 -0.071762 -0.000000 0.000000 0.000000 0.000000 0.000000 0.000000 0.000000 
-5.306616 16.746118 0.441350 -164.610959 80.396779 -142.328145 7.711742 -1.768054 4.615038 0.370599 -2.031806 -1.680272 -8.121371 -2.053509 1.227305 7.476265 2.025210 4.606653 -5.651869 -0.441751 2.841231 0.000000 0.000000 0.000000 -6.067984 -5.611738 1.464701 -58.323359 -28.534667 10.989732 -2.725717 -46.961697 -0.021949 7.666573 -3.480838 -0.254909 -0.167229 0.261814 0.000000 0.000000 0.000000 0.000000 0.000000 0.000000 0.000000 21.185481 -2.756836 0.109755 62.972832 8.465879 -15.679770 3.335982 16.251531 0.010147 -0.756442 7.093569 -0.052460 0.085900 -0.071710 -0.000000 0.000000 0.000000 0.000000 0.000000 0.000000 0.000000 
-5.190634 16.773319 0.447450 -164.639887 79.628608 -142.182980 8.118674 -1.808771 4.702723 0.464073 -2.082672 -1.690063 -8.082866 -2.116026 1.155949 7.780709 2.398991 4.768771 -5.632041 -0.440326 2.887974 0.000000 0.000000 0.000000 -5.773133 -5.895814 1.416393 -59.449081 -28.003656 10.371615 -2.728374 -45.549985 -0.023291 8.075265 -3.588178 -0.275690 -0.163370 0.257616 0.000000 0.000000 0.000000 0.000000 0.000000 0.000000 0.000000 21.400426 -2.556454 0.124469 62.899157 9.467521 -16.200987 3.332942 15.305465 0.009875 -0.927500 7.053890 -0.062868 0.086021 -0.071605 -0.000000 0.000000 0.000000 0.000000 0.000000 0.000000 0.000000 
-5.078261 16.803264 0.457954 -165.212685 78.815336 -142.593760 8.412800 -1.871561 4.813906 0.537942 -2.148706 -1.695789 -8.031144 -2.193840 1.077388 8.144043 2.783877 4.938413 -5.592886 -0.438176 2.937971 0.000000 0.000000 0.000000 -5.360575 -6.230827 1.366607 -60.604636 -27.473126 9.774147 -2.720853 -44.012546 -0.024749 8.506389 -3.661270 -0.295377 -0.159179 0.252959 0.000000 0.000000 0.000000 0.000000 0.000000 0.000000 0.000000 21.596923 -2.335039 0.138906 62.899627 10.465751 -16.772329 3.320809 14.378626 0.009538 -1.076021 6.989535 -0.071376 0.085673 -0.071472 -0.000000 0.000000 0.000000 0.000000 0.000000 0.000000 0.000000 
-4.968701 16.834796 0.472868 -166.237574 77.962689 -143.466471 8.589663 -1.951581 4.940882 0.590579 -2.225999 -1.697325 -7.966830 -2.282483 0.997676 8.557856 3.142037 5.103742 -5.536711 -0.435451 2.987892 0.000000 0.000000 0.000000 -4.848456 -6.617657 1.315867 -61.759330 -26.950425 9.228517 -2.704696 -42.376430 -0.026161 8.928140 -3.695909 -0.312167 -0.154772 0.247843 0.000000 0.000000 0.000000 0.000000 0.000000 0.000000 0.000000 21.776757 -2.124695 0.152839 62.966370 11.473578 -17.302048 3.301066 13.490072 0.009153 -1.211881 6.907933 -0.078885 0.084983 -0.071285 -0.000000 0.000000 0.000000 0.000000 0.000000 0.000000 0.000000 
-4.861132 16.866855 0.491556 -167.581775 77.074903 -144.662694 8.663225 -2.042608 5.070919 0.624248 -2.310395 -1.696737 -7.891129 -2.377534 0.919645 9.009494 3.479853 5.263531 -5.463111 -0.432146 3.037254 0.000000 0.000000 0.000000 -4.282815 -7.034629 1.270534 -62.869721 -26.460474 8.791135 -2.685648 -40.662778 -0.027377 9.309247 -3.682069 -0.323756 -0.150523 0.242289 0.000000 0.000000 0.000000 0.000000 0.000000 0.000000 0.000000 21.924575 -1.909280 0.164641 63.102045 12.450406 -17.783584 3.274580 12.691022 0.008730 -1.316479 6.807058 -0.083892 0.083850 -0.071065 -0.000000 0.000000 0.000000 0.000000 0.000000 0.000000 0.000000 
-4.754860 16.898641 0.513242 -169.129746 76.160174 -146.065281 8.647606 -2.137499 5.198535 0.641168 -2.396125 -1.694199 -7.805541 -2.472914 0.847103 9.485040 3.783894 5.412671 -5.374403 -0.428364 3.084296 0.000000 0.000000 0.000000 -3.706259 -7.471274 1.233711 -63.899434 -26.010742 8.500240 -2.668540 -38.910360 -0.028238 9.607782 -3.604478 -0.326842 -0.146577 0.236265 0.000000 0.000000 0.000000 0.000000 0.000000 0.000000 0.000000 22.035014 -1.697114 0.174190 63.297276 13.392583 -18.183480 3.243708 12.006802 0.008296 -1.376231 6.691595 -0.085899 0.082264 -0.070829 -0.000000 0.000000 0.000000 0.000000 0.000000 0.000000 0.000000 
-4.649219 16.929264 0.536486 -170.744781 75.216887 -147.524546 8.574105 -2.228065 5.305425 0.647622 -2.477846 -1.692540 -7.709909 -2.563180 0.784158 9.967478 4.043037 5.546914 -5.272359 -0.424173 3.127731 0.000000 0.000000 0.000000 -3.149246 -7.911211 1.204213 -64.845283 -25.614812 8.395268 -2.658634 -37.124886 -0.028606 9.797378 -3.478170 -0.321617 -0.143100 0.229840 0.000000 0.000000 0.000000 0.000000 0.000000 0.000000 0.000000 22.096066 -1.496100 0.180047 63.535839 14.292033 -18.385058 3.211120 11.460738 0.007878 -1.421463 6.582339 -0.087104 0.080500 -0.070584 -0.000000 0.000000 0.000000 0.000000 0.000000 0.000000 0.000000 
-4.543928 16.958549 0.560423 -172.344971 74.263842 -148.965574 8.459649 -2.307452 5.397680 0.646261 -2.548822 -1.690473 -7.607080 -2.641515 0.731316 10.445091 4.261676 5.667598 -5.159963 -0.419667 3.167325 0.000000 0.000000 0.000000 -2.659090 -8.344362 1.186446 -65.669404 -25.267936 8.497893 -2.660071 -35.363918 -0.028384 9.832223 -3.274157 -0.304383 -0.140013 0.222892 0.000000 0.000000 0.000000 0.000000 0.000000 0.000000 0.000000 22.107024 -1.300449 0.182979 63.805999 15.145099 -18.429307 3.179233 11.068652 0.007501 -1.414049 6.478826 -0.085208 0.078385 -0.070391 -0.000000 0.000000 0.000000 0.000000 0.000000 0.000000 0.000000 
